<svg width="111" height="19" viewBox="0 0 111 19" fill="none" xmlns="http://www.w3.org/2000/svg">
<path d="M0.483798 18.5V1.04545H3.64573V15.8494H11.3332V18.5H0.483798ZM17.7082 18.7642C16.8787 18.7642 16.1315 18.6165 15.4668 18.321C14.8077 18.0199 14.2849 17.5767 13.8986 16.9915C13.5179 16.4062 13.3275 15.6847 13.3275 14.8267C13.3275 14.0881 13.4639 13.4773 13.7366 12.9943C14.0094 12.5114 14.3815 12.125 14.8531 11.8352C15.3247 11.5455 15.856 11.3267 16.4469 11.179C17.0435 11.0256 17.6599 10.9148 18.2963 10.8466C19.0633 10.767 19.6855 10.696 20.1628 10.6335C20.64 10.5653 20.9866 10.4631 21.2025 10.3267C21.4241 10.1847 21.5349 9.96591 21.5349 9.67045V9.61932C21.5349 8.97727 21.3446 8.48011 20.9639 8.12784C20.5832 7.77557 20.0349 7.59943 19.319 7.59943C18.5633 7.59943 17.9639 7.7642 17.5207 8.09375C17.0832 8.4233 16.7878 8.8125 16.6344 9.26136L13.7537 8.85227C13.981 8.05682 14.356 7.39205 14.8787 6.85795C15.4014 6.31818 16.0406 5.91477 16.7963 5.64773C17.552 5.375 18.3872 5.23864 19.302 5.23864C19.9327 5.23864 20.5605 5.3125 21.1855 5.46023C21.8105 5.60795 22.3815 5.85227 22.8986 6.19318C23.4156 6.52841 23.8304 6.9858 24.1429 7.56534C24.4611 8.14489 24.6202 8.86932 24.6202 9.73864V18.5H21.6543V16.7017H21.552C21.3645 17.0653 21.1003 17.4062 20.7594 17.7244C20.4241 18.0369 20.0008 18.2898 19.4895 18.483C18.9838 18.6705 18.39 18.7642 17.7082 18.7642ZM18.5094 16.4972C19.1287 16.4972 19.6656 16.375 20.1202 16.1307C20.5747 15.8807 20.9241 15.5511 21.1685 15.142C21.4185 14.733 21.5435 14.2869 21.5435 13.804V12.2614C21.4469 12.3409 21.2821 12.4148 21.0491 12.483C20.8219 12.5511 20.5662 12.6108 20.2821 12.6619C19.998 12.7131 19.7168 12.7585 19.4383 12.7983C19.1599 12.8381 18.9185 12.8722 18.7139 12.9006C18.2537 12.9631 17.8418 13.0653 17.4781 13.2074C17.1145 13.3494 16.8275 13.5483 16.6173 13.804C16.4071 14.054 16.302 14.3778 16.302 14.7756C16.302 15.3438 16.5094 15.7727 16.9241 16.0625C17.3389 16.3523 17.8673 16.4972 18.5094 16.4972ZM30.8077 10.8295V18.5H27.7224V5.40909H30.6713V7.63352H30.8247C31.1258 6.90057 31.606 6.31818 32.265 5.88636C32.9298 5.45455 33.7508 5.23864 34.7281 5.23864C35.6315 5.23864 36.4185 5.43182 37.0889 5.81818C37.765 6.20455 38.2878 6.7642 38.6571 7.49716C39.0321 8.23011 39.2168 9.11932 39.2111 10.1648V18.5H36.1258V10.642C36.1258 9.76705 35.8986 9.08239 35.444 8.58807C34.9952 8.09375 34.373 7.84659 33.5775 7.84659C33.0378 7.84659 32.5577 7.96591 32.1372 8.20455C31.7224 8.4375 31.3957 8.77557 31.1571 9.21875C30.9241 9.66193 30.8077 10.1989 30.8077 10.8295ZM47.2054 18.7301C46.177 18.7301 45.2565 18.4659 44.444 17.9375C43.6315 17.4091 42.9895 16.642 42.5179 15.6364C42.0463 14.6307 41.8105 13.4091 41.8105 11.9716C41.8105 10.517 42.0491 9.28977 42.5264 8.28977C43.0094 7.28409 43.6599 6.52557 44.4781 6.0142C45.2963 5.49716 46.2082 5.23864 47.2139 5.23864C47.981 5.23864 48.6116 5.36932 49.106 5.63068C49.6003 5.88636 49.9923 6.19602 50.2821 6.55966C50.5719 6.91761 50.7963 7.25568 50.9554 7.57386H51.0832V1.04545H54.177V18.5H51.1429V16.4375H50.9554C50.7963 16.7557 50.5662 17.0937 50.265 17.4517C49.9639 17.804 49.5662 18.1051 49.0719 18.3551C48.5775 18.6051 47.9554 18.7301 47.2054 18.7301ZM48.0662 16.1989C48.7196 16.1989 49.2764 16.0227 49.7366 15.6705C50.1969 15.3125 50.5463 14.8153 50.7849 14.179C51.0236 13.5426 51.1429 12.8011 51.1429 11.9545C51.1429 11.108 51.0236 10.3722 50.7849 9.74716C50.552 9.12216 50.2054 8.63636 49.7452 8.28977C49.2906 7.94318 48.731 7.76989 48.0662 7.76989C47.3787 7.76989 46.8048 7.94886 46.3446 8.30682C45.8844 8.66477 45.5378 9.15909 45.3048 9.78977C45.0719 10.4205 44.9554 11.142 44.9554 11.9545C44.9554 12.7727 45.0719 13.5028 45.3048 14.1449C45.5435 14.7812 45.8929 15.2841 46.3531 15.6534C46.819 16.017 47.39 16.1989 48.0662 16.1989ZM60.1663 18.5L56.4675 5.40909H59.6123L61.9135 14.6136H62.0328L64.3851 5.40909H67.4959L69.8481 14.5625H69.976L72.243 5.40909H75.3964L71.6891 18.5H68.476L66.0214 9.65341H65.8425L63.3879 18.5H60.1663ZM77.5506 18.5V5.40909H80.6358V18.5H77.5506ZM79.1017 3.55114C78.6131 3.55114 78.1926 3.3892 77.8403 3.06534C77.4881 2.73579 77.3119 2.34091 77.3119 1.88068C77.3119 1.41477 77.4881 1.01989 77.8403 0.696022C78.1926 0.366477 78.6131 0.201704 79.1017 0.201704C79.596 0.201704 80.0165 0.366477 80.3631 0.696022C80.7153 1.01989 80.8915 1.41477 80.8915 1.88068C80.8915 2.34091 80.7153 2.73579 80.3631 3.06534C80.0165 3.3892 79.596 3.55114 79.1017 3.55114ZM86.8936 10.8295V18.5H83.8084V5.40909H86.7572V7.63352H86.9106C87.2118 6.90057 87.6919 6.31818 88.351 5.88636C89.0158 5.45455 89.8368 5.23864 90.8141 5.23864C91.7175 5.23864 92.5044 5.43182 93.1748 5.81818C93.851 6.20455 94.3737 6.7642 94.743 7.49716C95.118 8.23011 95.3027 9.11932 95.297 10.1648V18.5H92.2118V10.642C92.2118 9.76705 91.9845 9.08239 91.53 8.58807C91.0811 8.09375 90.4589 7.84659 89.6635 7.84659C89.1237 7.84659 88.6436 7.96591 88.2231 8.20455C87.8084 8.4375 87.4817 8.77557 87.243 9.21875C87.0101 9.66193 86.8936 10.1989 86.8936 10.8295ZM103.291 18.7301C102.263 18.7301 101.342 18.4659 100.53 17.9375C99.7175 17.4091 99.0754 16.642 98.6038 15.6364C98.1322 14.6307 97.8964 13.4091 97.8964 11.9716C97.8964 10.517 98.1351 9.28977 98.6123 8.28977C99.0953 7.28409 99.7459 6.52557 100.564 6.0142C101.382 5.49716 102.294 5.23864 103.3 5.23864C104.067 5.23864 104.698 5.36932 105.192 5.63068C105.686 5.88636 106.078 6.19602 106.368 6.55966C106.658 6.91761 106.882 7.25568 107.041 7.57386H107.169V1.04545H110.263V18.5H107.229V16.4375H107.041C106.882 16.7557 106.652 17.0937 106.351 17.4517C106.05 17.804 105.652 18.1051 105.158 18.3551C104.663 18.6051 104.041 18.7301 103.291 18.7301ZM104.152 16.1989C104.806 16.1989 105.362 16.0227 105.823 15.6705C106.283 15.3125 106.632 14.8153 106.871 14.179C107.11 13.5426 107.229 12.8011 107.229 11.9545C107.229 11.108 107.11 10.3722 106.871 9.74716C106.638 9.12216 106.291 8.63636 105.831 8.28977C105.377 7.94318 104.817 7.76989 104.152 7.76989C103.465 7.76989 102.891 7.94886 102.431 8.30682C101.97 8.66477 101.624 9.15909 101.391 9.78977C101.158 10.4205 101.041 11.142 101.041 11.9545C101.041 12.7727 101.158 13.5028 101.391 14.1449C101.629 14.7812 101.979 15.2841 102.439 15.6534C102.905 16.017 103.476 16.1989 104.152 16.1989Z" fill="#111928"/>
</svg>
