<svg width="156" height="24" viewBox="0 0 156 24" fill="none" xmlns="http://www.w3.org/2000/svg">
<path d="M8.80078 16.7109C8.80078 16.6406 8.73047 16.5703 8.625 16.5703C8.51953 16.5703 8.44922 16.6406 8.44922 16.7109C8.44922 16.7812 8.51953 16.8516 8.625 16.8164C8.73047 16.8164 8.80078 16.7812 8.80078 16.7109ZM7.71094 16.5352C7.71094 16.6055 7.78125 16.7109 7.88672 16.7109C7.95703 16.7461 8.0625 16.7109 8.09766 16.6406C8.09766 16.5703 8.0625 16.5 7.95703 16.4648C7.85156 16.4297 7.74609 16.4648 7.71094 16.5352ZM9.29297 16.5C9.1875 16.5 9.11719 16.5703 9.11719 16.6758C9.11719 16.7461 9.22266 16.7812 9.32812 16.7461C9.43359 16.7109 9.50391 16.6758 9.46875 16.6055C9.46875 16.5352 9.36328 16.4648 9.29297 16.5ZM11.5781 3C6.72656 3 3 6.72656 3 11.5781C3 15.4805 5.42578 18.8203 8.94141 20.0156C9.39844 20.0859 9.53906 19.8047 9.53906 19.5938C9.53906 19.3477 9.53906 18.1523 9.53906 17.4141C9.53906 17.4141 7.07812 17.9414 6.55078 16.3594C6.55078 16.3594 6.16406 15.3398 5.60156 15.0938C5.60156 15.0938 4.79297 14.5312 5.63672 14.5312C5.63672 14.5312 6.51562 14.6016 7.00781 15.4453C7.78125 16.8164 9.04688 16.4297 9.57422 16.1836C9.64453 15.6211 9.85547 15.2344 10.1367 14.9883C8.16797 14.7773 6.16406 14.4961 6.16406 11.1211C6.16406 10.1367 6.44531 9.67969 7.00781 9.04688C6.90234 8.80078 6.62109 7.88672 7.11328 6.65625C7.81641 6.44531 9.53906 7.60547 9.53906 7.60547C10.2422 7.39453 10.9805 7.32422 11.7188 7.32422C12.4922 7.32422 13.2305 7.39453 13.9336 7.60547C13.9336 7.60547 15.6211 6.41016 16.3594 6.65625C16.8516 7.88672 16.5352 8.80078 16.4648 9.04688C17.0273 9.67969 17.3789 10.1367 17.3789 11.1211C17.3789 14.4961 15.3047 14.7773 13.3359 14.9883C13.6523 15.2695 13.9336 15.7969 13.9336 16.6406C13.9336 17.8008 13.8984 19.2773 13.8984 19.5586C13.8984 19.8047 14.0742 20.0859 14.5312 19.9805C18.0469 18.8203 20.4375 15.4805 20.4375 11.5781C20.4375 6.72656 16.4648 3 11.5781 3ZM6.41016 15.1289C6.33984 15.1641 6.375 15.2695 6.41016 15.3398C6.48047 15.375 6.55078 15.4102 6.62109 15.375C6.65625 15.3398 6.65625 15.2344 6.58594 15.1641C6.51562 15.1289 6.44531 15.0938 6.41016 15.1289ZM6.02344 14.8477C5.98828 14.918 6.02344 14.9531 6.09375 14.9883C6.16406 15.0234 6.23438 15.0234 6.26953 14.9531C6.26953 14.918 6.23438 14.8828 6.16406 14.8477C6.09375 14.8125 6.05859 14.8125 6.02344 14.8477ZM7.14844 16.1133C7.11328 16.1484 7.11328 16.2539 7.21875 16.3242C7.28906 16.3945 7.39453 16.4297 7.42969 16.3594C7.46484 16.3242 7.46484 16.2188 7.39453 16.1484C7.32422 16.0781 7.21875 16.043 7.14844 16.1133ZM6.76172 15.5859C6.69141 15.6211 6.69141 15.7266 6.76172 15.7969C6.83203 15.8672 6.90234 15.9023 6.97266 15.8672C7.00781 15.832 7.00781 15.7266 6.97266 15.6562C6.90234 15.5859 6.83203 15.5508 6.76172 15.5859Z" fill="#9CA3AF"/>
<path d="M63.1367 8.62109C63.8398 8.09375 64.4727 7.46094 64.9648 6.72266C64.332 7.00391 63.5938 7.21484 62.8555 7.28516C63.6289 6.82812 64.1914 6.125 64.4727 5.24609C63.7695 5.66797 62.9609 5.98438 62.1523 6.16016C61.4492 5.42188 60.5 5 59.4453 5C57.4062 5 55.7539 6.65234 55.7539 8.69141C55.7539 8.97266 55.7891 9.25391 55.8594 9.53516C52.8008 9.35938 50.0586 7.88281 48.2305 5.66797C47.9141 6.19531 47.7383 6.82812 47.7383 7.53125C47.7383 8.79688 48.3711 9.92188 49.3906 10.5898C48.793 10.5547 48.1953 10.4141 47.7031 10.1328V10.168C47.7031 11.9609 48.9688 13.4375 50.6562 13.7891C50.375 13.8594 50.0234 13.9297 49.707 13.9297C49.4609 13.9297 49.25 13.8945 49.0039 13.8594C49.4609 15.3359 50.832 16.3906 52.4492 16.4258C51.1836 17.4102 49.6016 18.0078 47.8789 18.0078C47.5625 18.0078 47.2812 17.9727 47 17.9375C48.6172 18.9922 50.5508 19.5898 52.6602 19.5898C59.4453 19.5898 63.1367 14 63.1367 9.11328C63.1367 8.9375 63.1367 8.79688 63.1367 8.62109Z" fill="#9CA3AF"/>
<path d="M99.7188 3C94.9023 3 91 6.9375 91 11.7188C91 16.5352 94.9023 20.4375 99.7188 20.4375C104.5 20.4375 108.438 16.5352 108.438 11.7188C108.438 6.9375 104.5 3 99.7188 3ZM105.449 7.04297C106.504 8.30859 107.137 9.92578 107.137 11.6836C106.891 11.6133 104.43 11.1211 101.969 11.4375C101.758 10.9453 101.582 10.5234 101.301 9.96094C104.078 8.83594 105.309 7.25391 105.449 7.04297ZM104.641 6.16406C104.5 6.375 103.375 7.88672 100.738 8.87109C99.5078 6.62109 98.1719 4.79297 97.9609 4.51172C100.316 3.94922 102.812 4.54688 104.641 6.16406ZM96.5195 5.00391C96.7305 5.28516 98.0664 7.11328 99.2969 9.32812C95.8164 10.2422 92.7578 10.2422 92.4062 10.207C92.8984 7.92188 94.4453 5.98828 96.5195 5.00391ZM92.2656 11.7539C92.2656 11.6836 92.2656 11.6133 92.2656 11.5078C92.582 11.543 96.2031 11.5781 99.8945 10.4531C100.141 10.875 100.316 11.2969 100.527 11.7188C97.8203 12.4922 95.3594 14.6719 94.1641 16.7109C92.9688 15.4102 92.2656 13.6523 92.2656 11.7539ZM95.1133 17.625C95.9219 16.043 98.0312 13.9688 101.02 12.9492C102.074 15.6562 102.496 17.9414 102.602 18.6094C100.211 19.6289 97.3281 19.3477 95.1133 17.625ZM103.867 17.9062C103.797 17.4844 103.375 15.3047 102.426 12.5977C104.746 12.2461 106.785 12.8438 107.066 12.9141C106.715 14.9883 105.52 16.7812 103.867 17.9062Z" fill="#9CA3AF"/>
<path d="M148.035 13.125L148.527 9.89062H145.398V7.78125C145.398 6.86719 145.82 6.02344 147.227 6.02344H148.668V3.24609C148.668 3.24609 147.367 3 146.137 3C143.57 3 141.883 4.58203 141.883 7.39453V9.89062H139V13.125H141.883V21H145.398V13.125H148.035Z" fill="#9CA3AF"/>
</svg>
